<?xml version="1.0" encoding="UTF-8"?>
<svg width="32px" height="32px" viewBox="0 0 32 32" version="1.1" xmlns="http://www.w3.org/2000/svg" xmlns:xlink="http://www.w3.org/1999/xlink">
    <!-- Generator: Sketch 53.2 (72643) - https://sketchapp.com -->
    <title>32</title>
    <desc>Created with Sketch.</desc>
    <g id="32" stroke="none" stroke-width="1" fill="none" fill-rule="evenodd">
        <g id="small/Logo">
            <g id="Group-4">
                <g id="Group">
                    <path d="M15.9996461,0 C10.9986482,0 4.96619464,1.14737909 4.90659456e-06,3.67284168 C4.90659456e-06,9.12715832 -0.0685457026,22.7155122 15.9996461,32 C32.068193,22.7155122 31.9999976,9.12715832 31.9999976,3.67284168 C27.0334527,1.14737909 21.000999,0 15.9996461,0 L15.9996461,0 Z" id="Path" fill="#68BC71"></path>
                    <path d="M16,1.91272065e-09 L16,31.9997955 C-0.0685457026,22.7155122 4.90659461e-06,9.12715832 4.90659461e-06,3.67284168 C4.96619464,1.14737909 10.9986482,0 15.9996461,0 Z" id="Combined-Shape" fill="#67B279"></path>
                </g>
                <path d="M15.8588465,20.5714286 L25.1428571,8.27015414 C24.4625437,7.73407795 23.8658116,8.11242945 23.5373174,8.40534674 L23.525331,8.40628557 L15.784336,16.3228761 L12.8677352,12.8723354 C11.4763322,11.291959 9.58473691,12.4974263 9.14285714,12.8160052 L15.8588465,20.5714286" id="Fill-11" fill="#FFFFFF"></path>
            </g>
        </g>
    </g>
</svg>